<?xml version="1.0" encoding="UTF-8" standalone="no"?>
<!-- Created with Inkscape (http://www.inkscape.org/) -->

<svg
   version="1.1"
   id="svg1"
   width="24"
   height="24"
   viewBox="0 0 24 24"
   sodipodi:docname="nwagyu.svg"
   inkscape:version="1.4.3 (0d15f75042, 2025-12-25)"
   xmlns:inkscape="http://www.inkscape.org/namespaces/inkscape"
   xmlns:sodipodi="http://sodipodi.sourceforge.net/DTD/sodipodi-0.dtd"
   xmlns="http://www.w3.org/2000/svg"
   xmlns:svg="http://www.w3.org/2000/svg">
  <defs
     id="defs1" />
  <sodipodi:namedview
     id="namedview1"
     pagecolor="#ffffff"
     bordercolor="#000000"
     borderopacity="0.25"
     inkscape:showpageshadow="2"
     inkscape:pageopacity="0.0"
     inkscape:pagecheckerboard="0"
     inkscape:deskcolor="#d1d1d1"
     inkscape:zoom="23.978919"
     inkscape:cx="0.062554948"
     inkscape:cy="13.65783"
     inkscape:window-width="2560"
     inkscape:window-height="1374"
     inkscape:window-x="0"
     inkscape:window-y="0"
     inkscape:window-maximized="1"
     inkscape:current-layer="g1" />
  <g
     inkscape:groupmode="layer"
     inkscape:label="Image"
     id="g1">
    <path
       style="fill:currentColor;stroke:none;stroke-width:0.0204804"
       d="M 17.069945,5.3495186 V 5.3085578 L 16.721777,5.2823885 16.435051,5.3027739 16.209767,5.2051132 15.744027,5.0706629 15.124304,4.7965471 15.062863,4.7146254 14.93998,4.5917428 C 14.936795,4.5059134 14.810151,4.4392097 14.735176,4.407419 14.787026,4.1724978 14.233524,4.1778016 14.120763,4.0592517 14.047623,4.0758187 14.006859,4.0984167 13.9774,4.0182907 l 0.06144,-0.040961 -0.102402,-0.081922 -0.51201,-0.040961 -0.184324,-0.040961 0.204804,-0.040961 c -0.03235,-0.058751 -0.05976,-0.058896 -0.122883,-0.040961 v -0.04096 c -0.318567,0.02421 -0.627739,0.06531 -0.901138,0.2319224 -0.07315,0.044578 -0.124954,0.053035 -0.163844,-0.027118 l -0.06144,0.061441 h -0.02048 v -0.061441 c -0.163986,0.042498 -0.425622,0.035283 -0.51201,0.2048042 -0.09874,-0.013464 -0.21858,0.042208 -0.245765,0.143363 l -0.225285,-0.2252847 -0.225285,0.1638435 0.08192,0.1228825 -0.122883,-0.061441 -0.143363,-0.143363 c -0.05971,0.089567 -0.402014,0.051549 -0.389128,0 h -0.06144 v 0.020481 c -0.02339,0.071566 -0.09026,0.1016671 -0.163843,0.1024021 l 0.02048,0.061441 C 10.021194,4.286017 9.8617719,4.295051 9.7190827,4.3954731 9.4764777,4.5662141 9.2501567,4.9006149 8.9187342,4.857989 L 8.8982542,5.001352 8.795852,4.960391 8.775372,5.103754 8.69345,5.062793 8.71393,5.124234 8.652489,5.103754 C 8.6127157,5.2525217 8.2310957,5.4570583 8.0790367,5.4928816 l 0.02048,0.040961 H 8.0380758 L 7.8742324,5.6362446 7.6694281,5.5748033 c 0.038575,0.087771 0.092479,0.1131212 0.1843239,0.1228826 v 0.02048 H 7.7513498 C 7.617373,5.8921937 7.5229541,6.0554345 7.3212608,6.1687358 7.2687306,6.0772489 7.1767919,6.0530009 7.0754957,6.0458532 l 0.081922,0.2457651 C 6.6258786,6.308205 6.124868,6.48973 5.5804245,6.4542292 4.4911606,6.3832027 3.4410165,5.7614122 2.5698016,5.1506871 2.0023177,4.7528787 1.4522503,4.2795713 1.0012471,3.7520453 0.84702659,3.5716578 0.51751945,3.1242571 0.25551293,3.1228409 0.02534385,3.1215957 -0.04146802,3.3217126 0.02368596,3.5062801 0.1439329,3.8469147 0.38405751,4.1552924 0.5891733,4.4483798 c 0.581375,0.83072 1.1876549,1.6389317 1.9806283,2.2813876 0.2609022,0.2113807 0.5816032,0.4940555 0.9011388,0.6063527 v 0.02048 c -0.2865191,0 -0.5538215,-0.1222338 -0.8396975,-0.1221238 C 2.4580399,7.2345377 2.325679,7.3547626 2.160193,7.3742353 1.997128,7.3934238 1.8184977,7.3395441 1.6686629,7.4243945 1.5564506,7.4879395 1.5448382,7.6002181 1.4569362,7.6745209 1.3270973,7.784272 0.9041205,7.6984189 1.0190726,8.0271445 c 0.020208,0.057789 0.053864,0.1117486 0.076138,0.1691536 l -0.081922,-0.02048 v 0.081922 h -0.0204805 v -0.081922 h -0.0409609 v 0.1024021 h -0.0204804 v -0.061441 c -0.21377347,0.096706 -0.25835322,0.2766621 -0.32929886,0.4710499 -0.0324277,0.088851 -0.0970066,0.148488 -0.0803097,0.2457651 -0.0618253,0.045136 -0.0432436,0.1530531 -0.0687421,0.2252847 -0.0506243,0.1434081 -0.19220369,0.3191041 -0.0660873,0.467826 0.0661694,0.07803 0.15643852,0.042782 0.23590401,0.086473 0.0608813,0.033473 0.0875553,0.1071397 0.12421011,0.1625159 l -0.0614413,0.02048 v 0.02048 l 0.26624556,0.3276872 -0.0204804,0.06144 c 0.27276939,0.149896 0.23195519,0.260517 -0.0409606,0.368649 v 0.02048 c 0.21150421,0.141004 0.37641801,0.32604 0.59393281,0.47105 0.1290308,0.08602 0.2974762,0.136877 0.430089,0.225284 0.2046813,0.136455 0.3911597,0.294906 0.5939323,0.43009 0.3744396,0.249625 0.8154282,0.413909 1.146904,0.634893 0.1386156,0.09241 0.3993806,-0.02304 0.5529715,0.04096 0.1032746,0.04303 0.2390025,0.02903 0.3686477,0.06144 0.1505373,0.03763 0.3030284,0.106478 0.4505694,0.143363 0.105122,0.02628 0.1895239,-0.172404 0.286726,-0.204803 0.1167385,-0.03891 0.2723897,0.03891 0.3891281,0 0.072009,-0.024 0.1332519,-0.08445 0.2252848,-0.06144 0.055447,0.01386 0.1133509,0.06462 0.1843238,0.04096 0.3588294,-0.11961 0.7149103,-0.304706 1.0649822,-0.450569 0.1010075,-0.04209 0.282847,-0.184324 0.3891282,-0.184324 0.069435,0 0.3329462,0.118897 0.3891281,0.163843 0.073289,0.05863 0.040426,0.202664 0.061441,0.286726 0.046224,0.184893 0.055152,0.384449 0.1024021,0.573452 0.2285964,0.914388 0.1420953,1.940566 0.3686477,2.846779 0.1782494,0.712999 0.5321041,1.426287 0.9830606,2.027562 0.1992889,0.265717 0.4571272,0.472967 0.6553745,0.737295 0.159475,0.212634 0.303593,0.455391 0.450569,0.675855 0.09347,0.140196 0.320947,0.369165 0.348167,0.532491 0.0097,0.05837 -0.06045,0.153281 -0.08192,0.204804 -0.04963,0.119106 -0.08837,0.43123 -0.04096,0.573452 0.07633,0.22899 0.248874,0.442525 0.307206,0.675854 0.04477,0.17909 -0.0031,0.376575 0.04096,0.552973 0.114832,0.459324 0.413694,0.965758 0.778256,1.249306 0.275368,0.214174 0.853586,0.386351 1.146904,0.327687 0.230307,-0.04606 0.529522,-0.122883 0.737296,-0.122883 0.123402,0 0.29201,0.118258 0.430089,0.143363 0.22725,0.04132 0.622418,0.03951 0.839697,0 0.219907,-0.03998 0.451784,-0.177104 0.614413,-0.307206 0.07256,-0.05805 0.0921,-0.181779 0.163843,-0.163844 l 0.27146,-0.921619 0.08078,-0.34684 0.630816,-0.04229 0.06144,0.04096 v -0.02048 h -0.04096 v -0.02048 c 0.195566,0.02322 0.555503,0.143643 0.736823,0.09538 0.07332,-0.01951 0.08259,-0.101464 0.152749,-0.122598 0.220058,-0.06628 0.419283,-0.01849 0.62598,-0.160998 0.355987,-0.245428 0.532546,-0.654797 0.632239,-1.061096 0.206131,-0.840105 0.04441,-1.669262 -0.126772,-2.498613 -0.04433,-0.214798 -0.09999,-0.446073 -0.168488,-0.655373 -0.06586,-0.201229 -0.174266,-0.207915 -0.09121,-0.430089 l -0.122882,0.08192 h -0.02048 c -0.242328,-0.386636 -0.772169,-0.502582 -1.058439,-0.860178 -0.144102,-0.180005 -0.337501,-0.45238 -0.39785,-0.675855 -0.05597,-0.207233 -0.0183,-0.462228 -0.0183,-0.675854 0,-0.36425 -0.02469,-0.72286 -0.04134,-1.085462 -0.01649,-0.359254 -0.01933,-0.625477 0.131795,-0.96258 0.04026,-0.08981 0.129959,-0.279071 0.237231,-0.286726 0.0242,-0.06107 0.0768,-0.157974 0.02048,-0.204805 l 0.204804,-1.085462 h 0.02048 l 0.06144,0.184323 0.122882,-0.102402 0.02048,0.08192 c 0.08216,-0.03641 0.133454,-0.09417 0.143363,-0.184324 h 0.02048 v 0.102402 l 0.06144,0.06144 h 0.04096 c 0.05793,-0.09172 0.101528,-0.135599 0.204804,-0.102403 l 0.02048,-0.102402 h 0.02048 v 0.08192 l 0.06144,-0.02048 0.06144,0.06144 V 10.8997 h 0.02048 l 0.02048,0.122883 0.122882,-0.02048 v 0.08192 h 0.02048 l 0.122882,-0.143363 0.04096,0.122883 0.04096,-0.04096 h 0.02048 l 0.04096,0.04096 0.02048,-0.102403 0.08192,-0.02048 0.143363,0.08192 0.06144,-0.06144 0.02048,0.06144 c 0.0768,-0.01839 0.142018,-0.04295 0.163844,-0.122883 h 0.02048 l 0.04096,0.08192 h 0.102402 v -0.06144 h 0.02048 l 0.163844,0.04096 c 0.04198,-0.07622 0.08186,-0.07562 0.163843,-0.06144 v -0.08192 l 0.04096,0.06144 0.08192,-0.04096 c 0.05872,0.232694 -0.06896,0.411872 -0.102402,0.634893 0.08193,-0.05573 0.137135,-0.3245 0.204804,-0.245765 l 0.02048,-0.204804 0.04096,-0.08192 c 0.04908,0.01177 0.05093,0.0097 0.06144,-0.04096 l 0.08192,-0.143363 0.163844,0.08192 0.02048,-0.143363 0.307207,0.06144 -0.04096,-0.122882 0.122882,0.02048 -0.04096,-0.04096 v -0.02048 h 0.08192 l 0.06144,-0.143364 0.02048,0.06144 0.08192,-0.02048 -0.02048,-0.06144 0.266246,-0.06144 v -0.04096 l -0.08192,-0.02048 v -0.02048 l 0.122883,0.02048 c 0.03244,-0.09413 0.07881,-0.159631 0.184323,-0.163843 l 0.245765,-0.143364 -0.02048,-0.081922 0.286726,-0.143363 c 0.02405,-0.055287 0.218258,-0.1203137 0.102402,-0.143363 V 9.609431 L 22.292428,9.56847 22.271948,9.507029 c 0.109323,-0.00742 0.174336,-0.025644 0.184324,-0.143363 0.06465,-0.00789 0.173742,-0.010981 0.184324,-0.081922 l 0.163843,-0.081922 -0.02048,-0.040961 c 0.062,-0.023868 0.08893,-0.035239 0.08192,-0.1024021 l 0.184324,-0.081922 -0.04096,-0.061441 h 0.08192 V 8.7902305 l 0.225285,-0.081922 -0.02048,-0.061441 0.184324,-0.1843238 c -0.0037,-0.1822001 0.229868,-0.2307499 0.368647,-0.2662456 l -0.04096,-0.081922 c 0.139134,-0.062855 0.171149,-0.4021934 0.122883,-0.5324911 0.12122,-0.076807 0.05781,-0.3063289 0,-0.4096086 0.125219,-0.091959 -0.09165,-0.3766666 -0.184324,-0.430089 l 0.02048,-0.081922 -0.45057,-0.3276868 H 23.193594 C 23.185004,6.2641766 22.925456,6.1763784 22.848271,6.1729084 22.630032,6.1630956 22.476813,6.0463808 22.271974,6.01153 22.135038,5.988232 21.948674,6.022645 21.841885,5.922971 21.710933,5.947224 21.599815,5.892439 21.473238,5.871295 21.087249,5.806816 20.67857,5.6585605 20.285372,5.7591276 c 0.34911,-0.3064738 0.737898,-0.5662468 1.062233,-0.9023713 0.74742,-0.7745874 1.365835,-1.6969692 1.88107,-2.6407427 0.192886,-0.3533175 0.41105,-0.7254702 0.48499,-1.1264235 0.03588,-0.19456161 0.03098,-0.44410681 -0.233345,-0.40647853 -0.266627,0.0379554 -0.475245,0.39381033 -0.621999,0.59080193 -0.42406,0.5692269 -0.818386,1.1136708 -1.323642,1.6179538 -0.925334,0.9235506 -2.078418,1.7585118 -3.31783,2.1979485 -0.376881,0.1336239 -0.764625,0.1619283 -1.146904,0.2597028 m -3.747919,-1.4541103 -0.02048,0.02048 0.02048,-0.02048 m 0.491531,0.081922 -0.02048,0.02048 0.02048,-0.02048 m 0.122882,0.02048 v 0.02048 h -0.102402 l 0.102402,-0.02048 m -3.686477,0.3276869 -0.06144,-0.040961 c 0.04907,-0.011768 0.05093,-0.00973 0.06144,0.040961 m 4.382812,-0.020481 -0.02048,0.020481 0.02048,-0.020481 m 0.04096,0.020481 v 0.061441 l -0.04096,-0.02048 v -0.02048 l 0.04096,-0.02048 m -6.9019047,1.3312278 -0.02048,0.02048 0.02048,-0.02048 M 20.285372,5.7591272 v 0.02048 c -0.14357,0.08669 -0.413109,0.2201038 -0.409609,0.409609 -0.150074,0.080943 -0.571506,0.1423641 -0.614413,0.3276868 -0.138742,0.00592 -0.222401,0.090384 -0.286726,0.2048043 h -0.02048 l 0.02048,-0.061441 -0.389128,0.2048043 c -0.01033,0.1036271 -0.244288,0.3378171 -0.348167,0.3481673 -0.02887,0.1236462 -0.148147,0.2103518 -0.266246,0.2457651 L 18.032525,7.3566006 17.131386,8.0734155 17.014002,7.7662091 16.680817,7.2746788 c 0.263669,0.032023 0.587313,-0.083642 0.839697,-0.1554044 0.712881,-0.2026981 1.375177,-0.4772513 2.007082,-0.866342 0.241728,-0.1488417 0.492601,-0.3998957 0.757776,-0.4938052 m 1.41315,0.1843238 -0.02048,0.02048 0.02048,-0.02048 m 0.430089,0.1024022 -0.02048,0.02048 0.02048,-0.02048 m -2.211887,0.061441 -0.02048,0.02048 0.02048,-0.02048 m 3.604556,0.3891281 -0.02048,0.02048 0.02048,-0.02048 m -22.4670304,1.379015 0.00683,0.00683 c -0.010108,0.00337 -0.022666,-0.00683 -0.00683,-0.00683 m 0.061441,0.1979779 -0.02048,0.02048 0.02048,-0.02048 m 0.02048,0.040961 -0.02048,0.02048 0.02048,-0.02048 m -0.02048,0.081922 -0.02048,0.02048 0.02048,-0.02048 m 6.0212461,0.081922 v 0.02048 l -0.02048,0.040961 -0.081922,0.040961 0.061441,-0.02048 -0.040961,0.061441 0.1638434,-0.081922 -0.02048,0.081922 0.061441,0.040961 h 0.02048 l 0.040961,-0.040961 -0.02048,0.040961 h 0.02048 c 0.1140883,-0.076317 0.2200663,-0.048 0.3481673,-0.040961 l -0.081922,0.1024021 -0.143363,0.286726 -0.2048043,0.1638435 c -0.1524706,0.032482 -0.3071265,0.2317673 -0.430089,-0.02048 l -0.061441,0.02048 -0.1024022,-0.1228826 -0.2048043,-0.081922 -0.02048,-0.081922 h -0.02048 v 0.040961 h -0.02048 l 0.02048,-0.061441 C 6.2577204,8.6541288 6.1708465,8.5945838 6.1538765,8.4420632 6.0195187,8.4677649 6.0001012,8.34728 5.9081113,8.2782198 l 0.4096086,0.019248 0.8192171,-0.019248 m 0.040961,-0.013654 c 0.01584,0 0.00328,0.010198 -0.00683,0.00683 l 0.00683,-0.00683 m -6.65613931,0.9147929 -0.0204804,0.02048 0.0204804,-0.02048 M 0.95184767,10.1829 0.93136727,10.20338 0.95184767,10.1829 m 19.35400433,0.552972 -0.02048,0.02048 0.02048,-0.02048 m -2.703416,0.143363 -0.02048,0.02048 0.02048,-0.02048 m 2.621495,0 -0.02048,0.02048 0.02048,-0.02048 m -2.068524,0.02048 -0.02048,0.02048 0.02048,-0.02048 m 1.495072,0.02048 -0.02048,0.02048 0.02048,-0.02048 m -1.6043,0.03413 -0.0068,0.01365 0.0068,-0.01365 m 0.04779,-0.01365 -0.02048,0.02048 0.02048,-0.02048 m 1.167384,0.02048 -0.04096,0.04096 0.04096,-0.04096 m -1.47459,0.02048 -0.02048,0.02048 z"
       id="path2" />
  </g>
</svg>
