<?xml version="1.0" encoding="UTF-8" standalone="no"?>
<svg
   id="svg"
   version="1.1"
   width="24"
   height="24"
   viewBox="0 0 24 24"
   sodipodi:docname="upsilon.svg"
   inkscape:version="1.4.3 (0d15f75042, 2025-12-25)"
   xmlns:inkscape="http://www.inkscape.org/namespaces/inkscape"
   xmlns:sodipodi="http://sodipodi.sourceforge.net/DTD/sodipodi-0.dtd"
   xmlns="http://www.w3.org/2000/svg"
   xmlns:svg="http://www.w3.org/2000/svg">
  <defs
     id="defs1" />
  <sodipodi:namedview
     id="namedview1"
     pagecolor="#ffffff"
     bordercolor="#000000"
     borderopacity="0.25"
     inkscape:showpageshadow="2"
     inkscape:pageopacity="0.0"
     inkscape:pagecheckerboard="0"
     inkscape:deskcolor="#d1d1d1"
     inkscape:zoom="16.560441"
     inkscape:cx="29.981086"
     inkscape:cy="25.995685"
     inkscape:window-width="2560"
     inkscape:window-height="1374"
     inkscape:window-x="0"
     inkscape:window-y="0"
     inkscape:window-maximized="1"
     inkscape:current-layer="svgg" />
  <g
     id="svgg">
    <path
       id="path1"
       d="m 2.3736218,0.00619613 c -0.01211,0.03170333 -0.013784,1.88821897 -0.00354,4.12566687 0.020184,4.4115876 0.00286,4.0066317 0.221431,5.1830026 0.054349,0.2923205 0.2565804,0.9645884 0.3755171,1.2479494 0.027273,0.06498 0.089892,0.220447 0.1390221,0.345488 0.1952413,0.496029 0.8516578,1.660585 1.0653107,1.889892 0.042731,0.04588 0.077683,0.09501 0.077683,0.109288 0,0.01428 0.037611,0.06853 0.083591,0.120611 0.045881,0.05199 0.1768297,0.209813 0.2908436,0.350607 0.3364295,0.415393 1.242239,1.266558 1.5708903,1.476076 0.067246,0.04283 0.157729,0.110568 0.2010503,0.150541 0.1469971,0.13538 0.8645558,0.560519 1.2996397,0.770037 0.5946836,0.286413 0.6435186,0.307877 0.8560884,0.376994 0.1026913,0.03338 0.2178866,0.07699 0.2559897,0.09688 0.038202,0.01989 0.1491632,0.0576 0.2466362,0.08379 0.097473,0.02629 0.2569742,0.07808 0.3544472,0.115096 l 0.1772236,0.06744 0.010043,3.76797 0.010041,3.767975 h 2.401971 2.40197 l 0.01004,-3.766198 0.01004,-3.766199 0.374139,-0.115884 c 0.205776,-0.0637 0.427305,-0.13853 0.492287,-0.166197 0.06498,-0.02767 0.180178,-0.07276 0.25599,-0.100229 0.358878,-0.129964 1.077618,-0.483821 1.39475,-0.686643 0.121792,-0.07788 0.230095,-0.141681 0.240728,-0.141681 0.03476,0 0.741583,-0.522022 1.003184,-0.740794 0.784609,-0.656417 1.652709,-1.668856 2.099903,-2.449231 0.16531,-0.288382 0.617526,-1.204135 0.617526,-1.250509 0,-0.02353 0.02491,-0.09294 0.05543,-0.154283 0.147785,-0.297243 0.392649,-1.1065644 0.492485,-1.6277002 0.18451,-0.963801 0.178898,-0.8029214 0.179784,-5.0804098 L 21.636646,-0.03121774 19.244127,-0.04135887 16.851609,-0.0515 v 3.528128 c 0,3.5217282 -0.02156,4.2486404 -0.13981,4.7232058 -0.143847,0.5768628 -0.141287,0.5694785 -0.376403,1.0633416 -1.020414,2.1437166 -3.473681,3.2186756 -5.785071,2.5350846 -0.318215,-0.09413 -1.079292,-0.477814 -1.2129974,-0.611519 -0.029045,-0.02904 -0.065967,-0.05287 -0.082015,-0.05287 -0.016049,0 -0.064096,-0.03101 -0.1068265,-0.06892 C 9.1057554,11.027042 8.9783514,10.919724 8.8654206,10.826386 8.5254466,10.545487 7.9116622,9.8423027 7.9116622,9.7338025 c 0,-0.012701 -0.044306,-0.081031 -0.098458,-0.1520185 -0.054152,-0.071086 -0.098458,-0.1449295 -0.098458,-0.1641287 0,-0.019298 -0.047457,-0.1328193 -0.105448,-0.2523467 C 7.4381799,8.8128305 7.3620722,8.5886427 7.2881305,8.2195253 7.2643038,8.1003917 7.2327974,7.9497516 7.2182257,7.8847696 7.2035555,7.8197876 7.1808118,6.0121069 7.1676185,3.8677014 L 7.1436933,-0.03121774 4.7697832,-0.04135887 c -2.0551045,-0.0087627 -2.3769622,-0.0024614 -2.3961614,0.047555"
       stroke="none"
       fill="currentColor"
       fill-rule="evenodd"
       style="stroke-width:0.0984576" />
  </g>
</svg>
